<?xml version="1.0" encoding="UTF-8" standalone="no"?>
<!DOCTYPE svg PUBLIC "-//W3C//DTD SVG 1.0//EN"
 "http://www.w3.org/TR/2001/REC-SVG-20010904/DTD/svg10.dtd" [
 <!ATTLIST svg xmlns:xlink CDATA #FIXED "http://www.w3.org/1999/xlink">
]>
<!-- Generated by Graphviz version 2.18 (Wed Aug &#160;6 10:29:47 UTC 2008)
     For user: (steph) Steph Tyszka,,, -->
<!-- Title: controllers_diagram Pages: 1 -->
<svg width="572pt" height="479pt"
 viewBox="0.00 0.00 572.00 479.00" xmlns="http://www.w3.org/2000/svg" xmlns:xlink="http://www.w3.org/1999/xlink">
<g id="graph0" class="graph" transform="scale(1 1) rotate(0) translate(4 475)">
<title>controllers_diagram</title>
<polygon style="fill:white;stroke:white;" points="-4,4 -4,-475 568,-475 568,4 -4,4"/>
<!-- _diagram_info -->
<g id="node1" class="node"><title>_diagram_info</title>
<text text-anchor="start" x="358.5" y="-305.4" style="font-family:Times New Roman;font-size:11.00;">Controllers diagram</text>
<text text-anchor="start" x="358.5" y="-288.4" style="font-family:Times New Roman;font-size:11.00;">Date: Feb 12 2009 &#45; 07:39</text>
<text text-anchor="start" x="358.5" y="-271.4" style="font-family:Times New Roman;font-size:11.00;">Migration version: 20090209191112</text>
<text text-anchor="start" x="358.5" y="-254.4" style="font-family:Times New Roman;font-size:11.00;">Generated by RailRoad 0.5.0</text>
</g>
<!-- UsersController -->
<g id="node2" class="node"><title>UsersController</title>
<polyline style="fill:none;stroke:black;" points="49,-13 130,-13 "/>
<path style="fill:none;stroke:black;" d="M130,-13C136,-13 142,-19 142,-25"/>
<polyline style="fill:none;stroke:black;" points="142,-25 142,-116 "/>
<path style="fill:none;stroke:black;" d="M142,-116C142,-122 136,-128 130,-128"/>
<polyline style="fill:none;stroke:black;" points="130,-128 49,-128 "/>
<path style="fill:none;stroke:black;" d="M49,-128C43,-128 37,-122 37,-116"/>
<polyline style="fill:none;stroke:black;" points="37,-116 37,-25 "/>
<path style="fill:none;stroke:black;" d="M37,-25C37,-19 43,-13 49,-13"/>
<text text-anchor="middle" x="89" y="-110.9" style="font-family:Times New Roman;font-size:11.00;">UsersController</text>
<polyline style="fill:none;stroke:black;" points="37,-103 142,-103 "/>
<text text-anchor="start" x="44.5" y="-86.4" style="font-family:Times New Roman;font-size:11.00;">create</text>
<text text-anchor="start" x="44.5" y="-69.4" style="font-family:Times New Roman;font-size:11.00;">new</text>
<polyline style="fill:none;stroke:black;" points="37,-61 142,-61 "/>
<polyline style="fill:none;stroke:black;" points="37,-37 142,-37 "/>
</g>
<!-- SessionsController -->
<g id="node3" class="node"><title>SessionsController</title>
<polyline style="fill:none;stroke:black;" points="223,-1 354,-1 "/>
<path style="fill:none;stroke:black;" d="M354,-1C360,-1 366,-7 366,-13"/>
<polyline style="fill:none;stroke:black;" points="366,-13 366,-207 "/>
<path style="fill:none;stroke:black;" d="M366,-207C366,-213 360,-219 354,-219"/>
<polyline style="fill:none;stroke:black;" points="354,-219 223,-219 "/>
<path style="fill:none;stroke:black;" d="M223,-219C217,-219 211,-213 211,-207"/>
<polyline style="fill:none;stroke:black;" points="211,-207 211,-13 "/>
<path style="fill:none;stroke:black;" d="M211,-13C211,-7 217,-1 223,-1"/>
<text text-anchor="middle" x="288" y="-201.9" style="font-family:Times New Roman;font-size:11.00;">SessionsController</text>
<polyline style="fill:none;stroke:black;" points="211,-194 366,-194 "/>
<text text-anchor="start" x="218.5" y="-177.4" style="font-family:Times New Roman;font-size:11.00;">create</text>
<text text-anchor="start" x="218.5" y="-160.4" style="font-family:Times New Roman;font-size:11.00;">destroy</text>
<text text-anchor="start" x="218.5" y="-143.4" style="font-family:Times New Roman;font-size:11.00;">new</text>
<text text-anchor="start" x="218.5" y="-126.4" style="font-family:Times New Roman;font-size:11.00;">view</text>
<polyline style="fill:none;stroke:black;" points="211,-118 366,-118 "/>
<text text-anchor="start" x="218.5" y="-100.9" style="font-family:Times New Roman;font-size:11.00;">failed_login</text>
<text text-anchor="start" x="218.5" y="-83.9" style="font-family:Times New Roman;font-size:11.00;">note_failed_signin</text>
<text text-anchor="start" x="218.5" y="-66.9" style="font-family:Times New Roman;font-size:11.00;">open_id_authentication</text>
<text text-anchor="start" x="218.5" y="-49.9" style="font-family:Times New Roman;font-size:11.00;">password_authentication</text>
<text text-anchor="start" x="218.5" y="-32.9" style="font-family:Times New Roman;font-size:11.00;">successful_login</text>
<polyline style="fill:none;stroke:black;" points="211,-25 366,-25 "/>
</g>
<!-- ApplicationController -->
<g id="node4" class="node"><title>ApplicationController</title>
<polyline style="fill:none;stroke:black;" points="13,-267 126,-267 "/>
<path style="fill:none;stroke:black;" d="M126,-267C132,-267 138,-273 138,-279"/>
<polyline style="fill:none;stroke:black;" points="138,-279 138,-352 "/>
<path style="fill:none;stroke:black;" d="M138,-352C138,-358 132,-364 126,-364"/>
<polyline style="fill:none;stroke:black;" points="126,-364 13,-364 "/>
<path style="fill:none;stroke:black;" d="M13,-364C7,-364 1,-358 1,-352"/>
<polyline style="fill:none;stroke:black;" points="1,-352 1,-279 "/>
<path style="fill:none;stroke:black;" d="M1,-279C1,-273 7,-267 13,-267"/>
<text text-anchor="middle" x="69" y="-346.9" style="font-family:Times New Roman;font-size:11.00;">ApplicationController</text>
<polyline style="fill:none;stroke:black;" points="1,-339 138,-339 "/>
<polyline style="fill:none;stroke:black;" points="1,-315 138,-315 "/>
<polyline style="fill:none;stroke:black;" points="1,-291 138,-291 "/>
</g>
<!-- ApplicationController&#45;&gt;UsersController -->
<g id="edge2" class="edge"><title>ApplicationController&#45;&gt;UsersController</title>
<path style="fill:none;stroke:black;" d="M74,-257C77,-218 81,-167 84,-128"/>
<polygon style="fill:none;stroke:black;" points="70.5125,-256.701 73,-267 77.4778,-257.398 70.5125,-256.701"/>
</g>
<!-- ApplicationController&#45;&gt;SessionsController -->
<g id="edge4" class="edge"><title>ApplicationController&#45;&gt;SessionsController</title>
<path style="fill:none;stroke:black;" d="M128,-260C154,-236 184,-208 211,-183"/>
<polygon style="fill:none;stroke:black;" points="125.596,-257.454 121,-267 130.546,-262.404 125.596,-257.454"/>
</g>
<!-- ThoughtsController -->
<g id="node5" class="node"><title>ThoughtsController</title>
<polyline style="fill:none;stroke:black;" points="213,-253 315,-253 "/>
<path style="fill:none;stroke:black;" d="M315,-253C321,-253 327,-259 327,-265"/>
<polyline style="fill:none;stroke:black;" points="327,-265 327,-458 "/>
<path style="fill:none;stroke:black;" d="M327,-458C327,-464 321,-470 315,-470"/>
<polyline style="fill:none;stroke:black;" points="315,-470 213,-470 "/>
<path style="fill:none;stroke:black;" d="M213,-470C207,-470 201,-464 201,-458"/>
<polyline style="fill:none;stroke:black;" points="201,-458 201,-265 "/>
<path style="fill:none;stroke:black;" d="M201,-265C201,-259 207,-253 213,-253"/>
<text text-anchor="middle" x="264" y="-452.9" style="font-family:Times New Roman;font-size:11.00;">ThoughtsController</text>
<polyline style="fill:none;stroke:black;" points="201,-445 327,-445 "/>
<text text-anchor="start" x="209" y="-428.4" style="font-family:Times New Roman;font-size:11.00;">create</text>
<text text-anchor="start" x="209" y="-411.4" style="font-family:Times New Roman;font-size:11.00;">destroy</text>
<text text-anchor="start" x="209" y="-394.4" style="font-family:Times New Roman;font-size:11.00;">edit</text>
<text text-anchor="start" x="209" y="-377.4" style="font-family:Times New Roman;font-size:11.00;">index</text>
<text text-anchor="start" x="209" y="-360.4" style="font-family:Times New Roman;font-size:11.00;">new</text>
<text text-anchor="start" x="209" y="-343.4" style="font-family:Times New Roman;font-size:11.00;">rss</text>
<text text-anchor="start" x="209" y="-326.4" style="font-family:Times New Roman;font-size:11.00;">show</text>
<text text-anchor="start" x="209" y="-309.4" style="font-family:Times New Roman;font-size:11.00;">update</text>
<polyline style="fill:none;stroke:black;" points="201,-301 327,-301 "/>
<polyline style="fill:none;stroke:black;" points="201,-277 327,-277 "/>
</g>
<!-- ApplicationController&#45;&gt;ThoughtsController -->
<g id="edge6" class="edge"><title>ApplicationController&#45;&gt;ThoughtsController</title>
<path style="fill:none;stroke:black;" d="M148,-334C165,-339 184,-343 201,-347"/>
<polygon style="fill:none;stroke:black;" points="148.492,-330.529 138,-332 147.119,-337.393 148.492,-330.529"/>
</g>
</g>
</svg>
