<?xml version="1.0" encoding="UTF-8" standalone="no"?>
<!DOCTYPE svg PUBLIC "-//W3C//DTD SVG 1.0//EN"
 "http://www.w3.org/TR/2001/REC-SVG-20010904/DTD/svg10.dtd" [
 <!ATTLIST svg xmlns:xlink CDATA #FIXED "http://www.w3.org/1999/xlink">
]>
<!-- Generated by Graphviz version 2.18 (Wed Aug &#160;6 10:29:47 UTC 2008)
     For user: (steph) Steph Tyszka,,, -->
<!-- Title: models_diagram Pages: 1 -->
<svg width="466pt" height="314pt"
 viewBox="0.00 0.00 466.00 314.00" xmlns="http://www.w3.org/2000/svg" xmlns:xlink="http://www.w3.org/1999/xlink">
<g id="graph0" class="graph" transform="scale(1 1) rotate(0) translate(4 310)">
<title>models_diagram</title>
<polygon style="fill:white;stroke:white;" points="-4,4 -4,-310 462,-310 462,4 -4,4"/>
<!-- _diagram_info -->
<g id="node1" class="node"><title>_diagram_info</title>
<text text-anchor="start" x="7.5" y="-234.4" style="font-family:Times New Roman;font-size:11.00;">Models diagram</text>
<text text-anchor="start" x="7.5" y="-217.4" style="font-family:Times New Roman;font-size:11.00;">Date: Feb 12 2009 &#45; 07:39</text>
<text text-anchor="start" x="7.5" y="-200.4" style="font-family:Times New Roman;font-size:11.00;">Migration version: 20090209191112</text>
<text text-anchor="start" x="7.5" y="-183.4" style="font-family:Times New Roman;font-size:11.00;">Generated by RailRoad 0.5.0</text>
</g>
<!-- User -->
<g id="node2" class="node"><title>User</title>
<polyline style="fill:none;stroke:black;" points="242,-120 446,-120 "/>
<path style="fill:none;stroke:black;" d="M446,-120C452,-120 458,-126 458,-132"/>
<polyline style="fill:none;stroke:black;" points="458,-132 458,-294 "/>
<path style="fill:none;stroke:black;" d="M458,-294C458,-300 452,-306 446,-306"/>
<polyline style="fill:none;stroke:black;" points="446,-306 242,-306 "/>
<path style="fill:none;stroke:black;" d="M242,-306C236,-306 230,-300 230,-294"/>
<polyline style="fill:none;stroke:black;" points="230,-294 230,-132 "/>
<path style="fill:none;stroke:black;" d="M230,-132C230,-126 236,-120 242,-120"/>
<text text-anchor="middle" x="344" y="-288.9" style="font-family:Times New Roman;font-size:11.00;">User</text>
<polyline style="fill:none;stroke:black;" points="230,-281 458,-281 "/>
<text text-anchor="start" x="238" y="-263.9" style="font-family:Times New Roman;font-size:11.00;">login :string</text>
<text text-anchor="start" x="238" y="-246.9" style="font-family:Times New Roman;font-size:11.00;">name :string</text>
<text text-anchor="start" x="238" y="-229.9" style="font-family:Times New Roman;font-size:11.00;">email :string</text>
<text text-anchor="start" x="238" y="-212.9" style="font-family:Times New Roman;font-size:11.00;">crypted_password :string</text>
<text text-anchor="start" x="238" y="-195.9" style="font-family:Times New Roman;font-size:11.00;">salt :string</text>
<text text-anchor="start" x="238" y="-178.9" style="font-family:Times New Roman;font-size:11.00;">created_at :datetime</text>
<text text-anchor="start" x="238" y="-161.9" style="font-family:Times New Roman;font-size:11.00;">updated_at :datetime</text>
<text text-anchor="start" x="238" y="-144.9" style="font-family:Times New Roman;font-size:11.00;">remember_token :string</text>
<text text-anchor="start" x="238" y="-127.9" style="font-family:Times New Roman;font-size:11.00;">remember_token_expires_at :datetime</text>
</g>
<!-- Thought -->
<g id="node3" class="node"><title>Thought</title>
<polyline style="fill:none;stroke:black;" points="290,-0 398,-0 "/>
<path style="fill:none;stroke:black;" d="M398,-0C404,-0 410,-6 410,-12"/>
<polyline style="fill:none;stroke:black;" points="410,-12 410,-72 "/>
<path style="fill:none;stroke:black;" d="M410,-72C410,-78 404,-84 398,-84"/>
<polyline style="fill:none;stroke:black;" points="398,-84 290,-84 "/>
<path style="fill:none;stroke:black;" d="M290,-84C284,-84 278,-78 278,-72"/>
<polyline style="fill:none;stroke:black;" points="278,-72 278,-12 "/>
<path style="fill:none;stroke:black;" d="M278,-12C278,-6 284,-0 290,-0"/>
<text text-anchor="middle" x="344" y="-66.9" style="font-family:Times New Roman;font-size:11.00;">Thought</text>
<polyline style="fill:none;stroke:black;" points="278,-59 410,-59 "/>
<text text-anchor="start" x="286" y="-41.9" style="font-family:Times New Roman;font-size:11.00;">content :text</text>
<text text-anchor="start" x="286" y="-24.9" style="font-family:Times New Roman;font-size:11.00;">created_at :datetime</text>
<text text-anchor="start" x="286" y="-7.9" style="font-family:Times New Roman;font-size:11.00;">updated_at :datetime</text>
</g>
<!-- User&#45;&gt;Thought -->
<g id="edge2" class="edge"><title>User&#45;&gt;Thought</title>
<path style="fill:none;stroke:black;" d="M344,-110C344,-104 344,-98 344,-92"/>
<polygon style="fill:black;stroke:black;" points="344,-110 339.5,-120 344,-115 344,-120 344,-120 344,-120 344,-115 348.5,-120 344,-110 344,-110"/>
<ellipse style="fill:black;stroke:black;" cx="344" cy="-88" rx="4" ry="4"/>
</g>
</g>
</svg>
